<?xml version="1.0" encoding="utf-8"?>
<!-- Generator: Adobe Illustrator 26.0.1, SVG Export Plug-In . SVG Version: 6.00 Build 0)  -->
<svg version="1.1" id="图层_1" xmlns="http://www.w3.org/2000/svg" xmlns:xlink="http://www.w3.org/1999/xlink" x="0px" y="0px"
	 viewBox="0 0 989.3 395.9" style="enable-background:new 0 0 989.3 395.9;" xml:space="preserve">
<style type="text/css">
	.st0{fill:#FFFFFF;}
</style>
<g>
	<g>
		<polygon class="st0" points="558.6,50 509.8,50 509.8,177.2 509.5,177.2 454,50 389.3,50 389.3,267.5 438.2,267.5 438.4,139.7 
			494,267.5 558.6,267.5 		"/>
		<polygon class="st0" points="111.9,267.5 134.7,267.5 166.7,235.6 166.7,103 203.6,103 203.6,50 75.5,50 75.5,103 111.9,103 		"/>
		<polygon class="st0" points="607,50 574.7,82.4 574.7,235.2 607,267.5 686.5,267.5 718.8,235.2 718.8,135.8 646.8,135.8 
			646.8,179.5 664.1,179.5 664.1,220.4 629.4,220.4 629.4,96.6 664.4,96.6 664.4,115.3 718.8,115.7 718.8,82.4 686.5,50 		"/>
		<path class="st0" d="M148.6,265.7l4.2,4.2l32-32V128.3c3.5-1.2,6-4.5,6-8.4c0-5-4-9-9-9s-9,4-9,9c0,3.9,2.5,7.2,6,8.4v107.2
			L148.6,265.7z M178.8,119.8c0-1.7,1.4-3,3-3c1.7,0,3,1.4,3,3s-1.4,3-3,3C180.2,122.8,178.8,121.5,178.8,119.8z"/>
		<g>
			<path class="st0" d="M281,176.6h33.6v91h55v-91.8L347,153.1l22.9-22.9V82.4L337.5,50H226v217.5h55V176.6z M281,95.7h33.6v34.8
				H281V95.7z"/>
			<path class="st0" d="M300.8,267.5v-64.4c3.5-1.2,6-4.5,6-8.4c0-5-4-9-9-9s-9,4-9,9c0,3.9,2.5,7.2,6,8.4v64.4H300.8z M294.8,194.7
				c0-1.7,1.4-3,3-3s3,1.4,3,3c0,1.7-1.4,3-3,3S294.8,196.4,294.8,194.7z"/>
		</g>
		<g>
			<polygon class="st0" points="834,266.3 811.2,266.3 779.3,234.4 779.3,101.8 742.3,101.8 742.3,48.8 838.1,48.8 855.8,66.6 
				870.4,81.2 870.4,101.8 834,101.8 			"/>
			<path class="st0" d="M763.1,234.2V127c3.5-1.2,6-4.5,6-8.4c0-5-4-9-9-9c-5,0-9,4-9,9c0,3.9,2.5,7.2,6,8.4v109.7l32,32l4.2-4.2
				L763.1,234.2z M760.1,121.6c-1.7,0-3-1.4-3-3s1.4-3,3-3s3,1.4,3,3S761.8,121.6,760.1,121.6z"/>
			<path class="st0" d="M877.3,16.7l-32.1,32.1l32.1,32.1l32.1-32.1L877.3,16.7z M877.2,59.1l-1.2-4.5h-6.4l-1.2,4.5h-5.2l6.3-21.5
				h6.7l6.3,21.5H877.2z M884,59.1V37.6h4.9v21.5H884z"/>
			<polygon class="st0" points="872.7,42.9 870.9,49.6 874.7,49.6 873,42.9 			"/>
		</g>
		<path class="st0" d="M692.5,82.1"/>
		<path class="st0" d="M692.5,82.1"/>
		<path class="st0" d="M692.5,82.1"/>
		<path class="st0" d="M692.5,82.1"/>
		<path class="st0" d="M692.5,82.1"/>
		<path class="st0" d="M691.3,82.1"/>
		<path class="st0" d="M691.3,82.1"/>
		<path class="st0" d="M691.3,82.1"/>
	</g>
	<g>
		<path class="st0" d="M289.8,384.3h70.8v-71.2h-70.8V384.3z M298.6,319.7h53.3v58.1h-53.3V319.7z"/>
		<polygon class="st0" points="377,319.8 429.7,319.8 429.7,338.6 377,338.6 377,345.1 438.5,345.1 438.5,313.2 377,313.2 		"/>
		<rect x="377" y="325.9" class="st0" width="46.3" height="6.6"/>
		<polygon class="st0" points="410.1,348.7 401.4,348.7 401.4,356.3 386,357.5 386,348.9 377.3,348.9 377.3,364.7 401.4,362.9 
			401.4,367.8 373.1,384.3 387.3,384.3 407.6,372.4 407.6,372.6 429.7,372.6 429.7,384 438.5,384 438.5,366.1 410.1,366.1 		"/>
		<rect x="417.3" y="352.1" class="st0" width="21.2" height="6.6"/>
		<polygon class="st0" points="489.2,360.4 489.2,353.9 476.8,353.9 476.8,348.7 468,348.7 468,353.9 455.5,353.9 455.5,360.4 
			468,360.4 468,384 476.8,384 476.8,360.4 		"/>
		<rect x="455.5" y="366.3" class="st0" width="8.8" height="17.6"/>
		<rect x="480.4" y="366.3" class="st0" width="8.8" height="17.6"/>
		<polygon class="st0" points="460.1,329.6 460.1,339.1 455.5,339.1 455.5,345.6 489.2,345.6 489.2,339.1 485,339.1 485,329.6 
			476.3,329.6 476.3,339.1 468.8,339.1 468.8,329.6 		"/>
		<polygon class="st0" points="476.7,313.2 468,313.2 468,319.8 455.7,319.8 455.7,326.4 489.4,326.4 489.4,319.8 476.7,319.8 		"/>
		<polygon class="st0" points="525.2,319.8 527.7,313.2 493.9,313.2 493.9,384 502.7,384 502.7,337.6 527.7,337.6 527.7,331.1 
			502.7,331.1 502.7,319.8 		"/>
		<rect x="514" y="341" class="st0" width="8.8" height="43"/>
		<polygon class="st0" points="654.2,324.7 654.2,319.9 657.7,319.9 661,313.3 629.4,313.3 629.4,324.7 638.2,324.7 638.2,319.9 
			645.4,319.9 645.4,324.7 		"/>
		<polygon class="st0" points="552.3,345.5 558.7,334.5 574.9,334.5 574.9,327.9 562.5,327.9 565.6,322.6 572.4,322.6 574.9,316 
			551.5,316 551.5,313.2 542.7,313.2 542.7,322.6 556,322.6 552.9,327.9 542.6,327.9 542.6,334.5 549.1,334.5 542.7,345.5 		"/>
		<polygon class="st0" points="565.1,345.5 574.6,345.5 569.6,336.9 560.1,336.9 		"/>
		<path class="st0" d="M580.1,345.3h31.6v-32.1h-31.6V345.3z M588.9,319.7h14.1v19h-14.1V319.7z"/>
		<path class="st0" d="M542.9,383.9h68.8v-35.1h-68.8V383.9z M602.9,355.4v22h-51.2v-7.7h45.7v-6.6h-45.7v-7.7H602.9z"/>
		<path class="st0" d="M629.4,362h65.7v-34.7h-65.7V362z M686.3,333.9v21.6h-48.1V353h42.6v-6.6h-42.6v-2.7h42.6v-6.6h-42.6v-3.4
			H686.3z"/>
		<polygon class="st0" points="688.4,324.7 688.4,319.9 691.8,319.9 695.1,313.3 663.5,313.3 663.5,324.7 672.3,324.7 672.3,319.9 
			679.7,319.9 679.7,324.7 		"/>
		<polygon class="st0" points="683.8,363.9 675.1,363.9 675.1,367.1 652,367.1 653.6,363.9 644.3,363.9 642.6,367.1 629.5,367.1 
			629.5,373.7 639.4,373.7 634,384.3 643.4,384.3 648.7,373.7 675.1,373.7 675.1,384 683.8,384 683.8,373.7 695.2,373.7 
			695.2,367.1 683.8,367.1 		"/>
		<polygon class="st0" points="315.4,323.9 306.6,323.9 306.6,333.7 335.3,333.7 335.3,337 324.1,342.6 306.3,335.1 306.3,342.7 
			316,346.7 306.3,351.5 306.3,359.4 324.5,350.3 344.1,358.5 344.1,351 332.7,346.2 344.1,340.5 344.1,327.1 315.4,327.1 		"/>
		<rect x="313.6" y="357.8" class="st0" width="23.2" height="6.6"/>
		<rect x="307.9" y="367.7" class="st0" width="34.7" height="6.6"/>
	</g>
	<g>
		<rect x="26" y="345.1" class="st0" width="234.7" height="6.5"/>
		<rect x="724.3" y="345.1" class="st0" width="234.7" height="6.5"/>
	</g>
</g>
</svg>
