<svg xmlns="http://www.w3.org/2000/svg" viewBox="0 0 16.34 16.24"><defs><style>.cls-1{fill:currentColor;}</style></defs><g id="图层_2" data-name="图层 2"><g id="图层_1-2" data-name="图层 1"><path class="cls-1" d="M14.89,0H1.46A1.46,1.46,0,0,0,0,1.46V3.6A1.46,1.46,0,0,0,1.46,5.06H14.89A1.45,1.45,0,0,0,16.34,3.6V1.46A1.45,1.45,0,0,0,14.89,0ZM2.82,3.65H2.07V1.41h.75Zm2.27,0H4.34V1.41h.75Zm2.3,0H6.65V1.41h.74Zm4.33-.76H10.61V2.18h1.11Zm2.46,0H13.07V2.18h1.11Z"/><path class="cls-1" d="M14.89,5.65H1.46A1.46,1.46,0,0,0,0,7.11V9.25a1.46,1.46,0,0,0,1.46,1.46H14.89a1.45,1.45,0,0,0,1.45-1.46V7.11A1.45,1.45,0,0,0,14.89,5.65ZM2.82,9.3H2.07V7.06h.75Zm2.27,0H4.34V7.06h.75Zm2.3,0H6.65V7.06h.74Zm4.33-.76H10.61V7.83h1.11Zm2.46,0H13.07V7.83h1.11Z"/><path class="cls-1" d="M14.89,11.18H1.46A1.45,1.45,0,0,0,0,12.63v2.15a1.46,1.46,0,0,0,1.46,1.46H14.89a1.45,1.45,0,0,0,1.45-1.46V12.63A1.45,1.45,0,0,0,14.89,11.18ZM2.82,14.83H2.07V12.59h.75Zm2.27,0H4.34V12.59h.75Zm2.3,0H6.65V12.59h.74Zm4.33-.77H10.61v-.71h1.11Zm2.46,0H13.07v-.71h1.11Z"/></g></g></svg>